<svg version="1.1" id="Layer_1" xmlns="http://www.w3.org/2000/svg" xmlns:xlink="http://www.w3.org/1999/xlink" x="0px" y="0px"
	 width="100%" viewBox="0 0 279 280" enable-background="new 0 0 279 280" xml:space="preserve">
<path fill="#F6F6F6" opacity="1.000000" stroke="none" 
	d="
M157.000000,281.000000 
	C104.666664,281.000000 52.833332,281.000000 1.000000,281.000000 
	C1.000000,187.666672 1.000000,94.333336 1.000000,1.000000 
	C94.000000,1.000000 187.000000,1.000000 280.000000,1.000000 
	C280.000000,94.333336 280.000000,187.666672 280.000000,281.000000 
	C239.166672,281.000000 198.333328,281.000000 157.000000,281.000000 
M228.591629,235.069305 
	C233.232300,230.376678 238.406754,226.098618 242.426132,220.923462 
	C266.649078,189.735168 274.925232,154.344543 267.569794,115.801376 
	C261.267090,82.774773 243.937042,56.014629 216.645386,36.277264 
	C186.646576,14.582078 153.132401,6.933444 116.626968,13.672412 
	C85.265297,19.461830 59.695614,35.228790 39.663097,59.897453 
	C22.501961,81.030205 13.203884,105.479599 11.162584,132.490570 
	C9.705046,151.777054 12.909744,170.564133 20.036745,188.603729 
	C27.296799,206.980087 37.832703,223.094833 53.255020,236.611130 
	C100.286514,281.127411 178.276550,282.028778 225.685013,238.556747 
	C226.667374,237.655960 227.154633,236.215225 228.591629,235.069305 
z"/>
<path fill="#CBCBCB" opacity="1.000000" stroke="none" 
	d="
M52.977974,235.998123 
	C37.832703,223.094833 27.296799,206.980087 20.036745,188.603729 
	C12.909744,170.564133 9.705046,151.777054 11.162584,132.490570 
	C13.203884,105.479599 22.501961,81.030205 39.663097,59.897453 
	C59.695614,35.228790 85.265297,19.461830 116.626968,13.672412 
	C153.132401,6.933444 186.646576,14.582078 216.645386,36.277264 
	C243.937042,56.014629 261.267090,82.774773 267.569794,115.801376 
	C274.925232,154.344543 266.649078,189.735168 242.426132,220.923462 
	C238.406754,226.098618 233.232300,230.376678 227.875565,235.060303 
	C215.157440,228.919052 202.961914,223.132446 191.209854,216.553619 
	C180.298111,210.445236 170.264923,201.274078 171.745956,188.539215 
	C173.165039,176.336914 180.112289,164.777374 184.639221,152.938873 
	C184.693115,152.797913 184.875839,152.709259 184.989212,152.587585 
	C192.615631,144.403748 194.749542,134.629120 191.178528,124.381271 
	C189.504150,119.576233 189.806717,115.545837 190.729416,110.998993 
	C195.907776,85.480865 184.263428,63.486233 160.815247,55.158203 
	C146.168274,49.956078 131.314728,50.284195 116.868774,56.069981 
	C102.424667,61.855026 93.523621,72.830727 89.495529,87.699524 
	C86.967552,97.030937 89.628471,106.166794 91.218643,115.324081 
	C91.538490,117.165993 91.677849,119.336609 91.015411,121.004097 
	C86.247833,133.005249 87.895859,143.737061 96.629364,153.384491 
	C97.908852,154.797867 98.759445,156.707047 99.456322,158.522034 
	C102.789825,167.204071 106.118790,175.892105 109.171448,184.674606 
	C109.893265,186.751282 109.997612,189.282654 109.607399,191.465683 
	C107.514160,203.176346 100.331017,211.117264 90.127480,216.546173 
	C77.787697,223.111694 65.364868,229.521133 52.977974,235.998123 
z"/>
<path fill="#4B4B4B" opacity="1.000000" stroke="none" 
	d="
M53.116501,236.304626 
	C65.364868,229.521133 77.787697,223.111694 90.127480,216.546173 
	C100.331017,211.117264 107.514160,203.176346 109.607399,191.465683 
	C109.997612,189.282654 109.893265,186.751282 109.171448,184.674606 
	C106.118790,175.892105 102.789825,167.204071 99.456322,158.522034 
	C98.759445,156.707047 97.908852,154.797867 96.629364,153.384491 
	C87.895859,143.737061 86.247833,133.005249 91.015411,121.004097 
	C91.677849,119.336609 91.538490,117.165993 91.218643,115.324081 
	C89.628471,106.166794 86.967552,97.030937 89.495529,87.699524 
	C93.523621,72.830727 102.424667,61.855026 116.868774,56.069981 
	C131.314728,50.284195 146.168274,49.956078 160.815247,55.158203 
	C184.263428,63.486233 195.907776,85.480865 190.729416,110.998993 
	C189.806717,115.545837 189.504150,119.576233 191.178528,124.381271 
	C194.749542,134.629120 192.615631,144.403748 184.989212,152.587585 
	C184.875839,152.709259 184.693115,152.797913 184.639221,152.938873 
	C180.112289,164.777374 173.165039,176.336914 171.745956,188.539215 
	C170.264923,201.274078 180.298111,210.445236 191.209854,216.553619 
	C202.961914,223.132446 215.157440,228.919052 227.516174,235.038849 
	C227.154633,236.215225 226.667374,237.655960 225.685013,238.556747 
	C178.276550,282.028778 100.286514,281.127411 53.116501,236.304626 
z"/>
</svg>